<?xml version="1.0" encoding="UTF-8"?>
<svg id="Camada_2" data-name="Camada 2" xmlns="http://www.w3.org/2000/svg" viewBox="0 0 133.57 133.57">
  <defs>
    <style>
      .cls-1 {
        fill: none;
      }

      .cls-1, .cls-2 {
        stroke-width: 0px;
      }

      .cls-2 {
        fill: #ffffff;
      }
    </style>
  </defs>
  <g id="Layer_1" data-name="Layer 1">
    <g>
      <g>
        <path class="cls-2" d="m89.86,47.55c-3.94,0-7.14-3.2-7.14-7.14s3.2-7.14,7.14-7.14,7.14,3.2,7.14,7.14-3.2,7.14-7.14,7.14Zm0-13.19c-3.33,0-6.05,2.71-6.05,6.05s2.71,6.05,6.05,6.05,6.05-2.71,6.05-6.05-2.71-6.05-6.05-6.05Z"/>
        <path class="cls-2" d="m71.95,35.65s-.09,0-.14-.02l-30.02-7.94c-.24-.06-.41-.28-.41-.53v-11.48c0-.3.24-.54.54-.54s.54.24.54.54v11.06l29.16,7.71,7.83-18.98c.08-.21.28-.34.5-.34.07,0,.14.01.21.04.13.06.24.16.29.29.06.13.06.28,0,.42l-8.01,19.42c-.08.2-.28.34-.5.34Z"/>
        <path class="cls-2" d="m33.69,89.78c-.3,0-.54-.24-.54-.55v-11.62l-17.59-4.65c-.29-.08-.46-.38-.39-.67.06-.24.28-.41.53-.41.05,0,.09,0,.14.02l17.99,4.76c.24.06.41.28.41.53v12.04c0,.3-.25.55-.55.55Z"/>
        <path class="cls-2" d="m33.69,25.53s-.09,0-.14-.02l-17.99-4.76c-.29-.08-.46-.38-.39-.67.06-.24.28-.41.53-.41.05,0,.09,0,.14.02l17.31,4.58v-8.59c0-.3.24-.54.54-.54s.55.24.55.54v9.3c0,.17-.08.33-.21.43-.1.07-.21.11-.33.11Z"/>
        <path class="cls-2" d="m33.69,118.42c-.3,0-.54-.24-.54-.54v-21.22c0-.3.24-.54.54-.54s.55.24.55.54v21.22c0,.3-.25.54-.55.54Z"/>
        <path class="cls-2" d="m33.69,69.22s-.09,0-.14-.02l-17.99-4.76c-.29-.08-.46-.38-.39-.67.06-.24.28-.41.53-.41.05,0,.09,0,.14.02l17.31,4.58v-34.04l-17.59-4.65c-.29-.08-.46-.38-.39-.67.06-.24.28-.41.53-.41.05,0,.09,0,.14.02l17.99,4.76c.24.06.41.28.41.53v35.16c0,.17-.08.33-.21.43-.1.07-.21.11-.33.11Z"/>
        <path class="cls-2" d="m95.07,85.46s-.09,0-.14-.02l-53.15-14.06c-.24-.06-.41-.28-.41-.53v-35.16c0-.17.08-.33.21-.43.09-.07.21-.11.33-.11.05,0,.09,0,.14.02l34.56,9.14-.28-1.54c-.15-.82-.22-1.61-.22-2.35,0-4.81,2.46-9.19,6.58-11.72l.28-.17,5.38-13.04c.08-.2.28-.34.5-.34.07,0,.14.01.21.04.28.11.41.43.3.71l-4.82,11.69,1.93-.49c1.1-.28,2.24-.42,3.37-.42,7.57,0,13.73,6.16,13.73,13.73,0,.49-.04,1.02-.1,1.58l-.11.87,7.63,2.02,6.37-15.43c.08-.21.28-.34.5-.34.07,0,.14.01.21.04.28.11.41.43.3.71l-6.55,15.87c-.08.21-.28.34-.5.34-.05,0-.09,0-.14-.02l-8.04-2.13-.28.92c-.44,1.46-1.09,3.02-1.92,4.64l-.57,1.1,7.91,2.09c.15.04.28.14.35.29.07.14.08.3.01.45l-13.08,31.7c-.08.2-.28.34-.5.34Zm-52.6-15.02l52.28,13.83,12.66-30.69-7.61-2.01-.39.64c-3.83,6.3-8.96,11.45-9.18,11.67-.1.1-.24.16-.39.16s-.28-.06-.38-.16c-.37-.37-9.05-9.11-12.22-17.83l-.18-.49-34.6-9.15v34.04Zm47.38-42.66c-6.97,0-12.64,5.67-12.64,12.64,0,7.75,8.33,17.62,11.9,21.51l.74.8.74-.8c3.58-3.88,11.91-13.76,11.91-21.51,0-6.97-5.67-12.64-12.64-12.64Z"/>
        <path class="cls-2" d="m90.38,118.42c-.07,0-.14-.01-.21-.04-.28-.11-.41-.43-.29-.71l9.55-23.15c.08-.21.28-.34.5-.34.05,0,.09,0,.14.02l17.94,4.74c.14.04.26.13.33.25s.09.27.06.41c-.06.24-.28.41-.53.41-.05,0-.09,0-.14-.02l-17.48-4.62-9.37,22.71c-.08.21-.28.34-.5.34Z"/>
        <path class="cls-2" d="m117.88,91.49s-.09,0-.14-.02l-14.77-3.91c-.15-.04-.28-.14-.35-.28-.07-.14-.08-.31-.02-.45l13.08-31.7c.08-.21.28-.34.5-.34.07,0,.14.01.21.04.13.06.24.16.29.29.06.13.06.28,0,.42l-12.84,31.13,14.16,3.75c.14.04.26.13.33.25.07.13.09.27.06.41-.06.24-.28.41-.53.41Z"/>
        <path class="cls-2" d="m81.47,118.42c-.07,0-.14-.01-.21-.04-.13-.06-.24-.16-.29-.29-.06-.13-.06-.28,0-.42l10.19-24.7-48.69-12.88v37.79c0,.3-.24.54-.54.54s-.54-.24-.54-.54v-38.5c0-.17.08-.33.21-.43.09-.07.21-.11.33-.11.05,0,.09,0,.14.02l49.97,13.22c.15.04.28.14.35.29.07.14.08.3.01.45l-10.43,25.28c-.08.21-.28.34-.5.34Z"/>
      </g>
      <rect class="cls-1" width="133.57" height="133.57"/>
    </g>
  </g>
</svg>