<?xml version="1.0" encoding="UTF-8"?>
<svg id="Camada_2" data-name="Camada 2" xmlns="http://www.w3.org/2000/svg" viewBox="0 0 133.57 133.57">
  <defs>
    <style>
      .cls-1, .cls-2 {
        fill: none;
      }

      .cls-1, .cls-3 {
        stroke-width: 0px;
      }

      .cls-2 {
        stroke: #e1cab7;
        stroke-linecap: round;
        stroke-linejoin: round;
        stroke-width: .99px;
      }

      .cls-3 {
        fill: #e1cab7;
      }
    </style>
  </defs>
  <g id="Layer_1" data-name="Layer 1">
    <g>
      <g>
        <g>
          <path class="cls-3" d="m9.89,123.23c-.07,0-.14-.01-.21-.04-.16-.05-.28-.17-.36-.32-.07-.15-.08-.32-.03-.48l2.96-8.48h-1.41c-.92,0-1.58-.67-1.58-1.49v-2.81c0-.95.44-1.83,1.21-2.41l.4-.3v-11.5c0-1.18.96-2.14,2.14-2.14h12.57c1.18,0,2.14.96,2.14,2.14v11.5l.4.3c.77.58,1.21,1.45,1.21,2.41v2.81c0,.82-.67,1.49-1.49,1.49h-1.41l.37,1.33,2.49,7.15c.06.16.05.33-.03.48s-.2.26-.36.32c-.06.02-.13.03-.2.03-.22,0-.49-.13-.59-.42l-3.1-8.89h-11.45l-3.1,8.89c-.09.25-.32.42-.59.42Zm2.38-15.37c-.97,0-1.76.79-1.76,1.76v3.05h17.58v-3.05c0-.97-.79-1.76-1.76-1.76h-14.06Zm-.15-1.25h14.35v-12.09h-14.35v12.09Zm51.54-6.76c-7.69,0-15.07-2.85-20.79-8.02l-.71-.64-5.87,5.87c-.12.12-.27.18-.44.18s-.32-.06-.44-.18c-.24-.24-.24-.64,0-.88l5.87-5.87-.64-.71c-5.17-5.72-8.01-13.1-8.01-20.79,0-2.72.35-5.41,1.04-8.01.07-.27.32-.46.6-.46.05,0,.11,0,.16.02.16.04.3.15.38.29s.11.31.06.47c-.67,2.5-1,5.08-1,7.69,0,16.42,13.36,29.78,29.78,29.78s29.78-13.36,29.78-29.78-13.36-29.78-29.78-29.78c-10.77,0-20.73,5.84-26,15.24-.11.2-.32.32-.54.32-.11,0-.21-.03-.3-.08-.15-.08-.25-.21-.3-.38-.04-.16-.02-.33.06-.47,1.13-2.02,2.5-3.92,4.06-5.65l.64-.71-5.86-5.86c-.12-.12-.18-.27-.18-.44s.07-.32.18-.44c.12-.12.27-.18.44-.18s.32.06.44.18l5.86,5.86.71-.64c5.73-5.17,13.11-8.01,20.8-8.01s15.07,2.85,20.79,8.01l.71.64,5.87-5.87c.12-.12.27-.18.44-.18s.32.06.44.18c.12.12.18.27.18.44s-.07.32-.18.44l-5.87,5.87.64.71c5.17,5.72,8.01,13.1,8.01,20.79s-2.85,15.07-8.01,20.79l-.64.71,5.87,5.87c.12.12.18.27.18.44s-.07.32-.18.44c-.12.12-.27.18-.44.18s-.32-.06-.44-.18l-5.87-5.87-.71.64c-5.71,5.17-13.1,8.02-20.79,8.02Zm-14.36-12.48c-.34,0-.62-.28-.62-.62s.28-.62.62-.62h2.54l-2.43-19.66-.93.04h-.2c-.8,0-1.58-.22-2.26-.65-1.26-.79-2.01-2.14-2.01-3.63,0-1.62.94-3.13,2.4-3.85l16.03-7.82c.39-.19.8-.28,1.22-.28s.83.1,1.22.29l16.03,7.82c1.46.71,2.4,2.22,2.4,3.85,0,1.49-.75,2.84-2.01,3.63-.68.43-1.47.65-2.26.65,0,0-.2,0-.2,0l-.93-.04-2.43,19.66h2.54c.34,0,.62.28.62.62s-.28.62-.62.62h-28.72Zm17.81-13.13c.82,0,1.49.67,1.49,1.49v10.4h5.62l2.51-20.26-13.07-6.38-13.07,6.38,2.51,20.26h5.62v-10.4c0-.82.67-1.49,1.49-1.49h6.91Zm-7.15,11.89h7.4v-10.64h-7.4v10.64Zm3.7-34.6c-.23,0-.47.05-.68.16l-16.02,7.82c-1.04.5-1.7,1.58-1.7,2.73,0,1.07.52,2.01,1.43,2.57.49.31,1.04.47,1.6.47.46,0,.91-.11,1.34-.31l13.29-6.49c.24-.12.49-.17.75-.17s.51.06.75.17l13.29,6.49c.43.21.88.31,1.34.31.56,0,1.11-.16,1.6-.47.91-.57,1.43-1.5,1.43-2.57,0-1.15-.67-2.22-1.7-2.73l-16.03-7.82c-.21-.1-.44-.16-.68-.16Z"/>
          <g id="g19">
            <g id="g25">
              <path id="path27" class="cls-2" d="m18.89,34.33h-2.65c-.8,0-1.46-.65-1.46-1.46v-16.09c0-.8.65-1.46,1.46-1.46h2.65c.8,0,1.46.65,1.46,1.46v16.09c0,.8-.65,1.46-1.46,1.46Z"/>
            </g>
            <g id="g29">
              <path id="path31" class="cls-2" d="m10.81,18.98v-.64c0-.51.41-.93.93-.93h2.12c.51,0,.93.42.93.93v12.98c0,.51-.41.93-.93.93h-2.12c-.51,0-.93-.41-.93-.93v-10.21"/>
            </g>
            <g id="g33">
              <path id="path35" class="cls-2" d="m10.81,27.47h-1.32c-.37,0-.66-.3-.66-.66v-3.97c0-.37.3-.66.66-.66h1.32v5.3Z"/>
            </g>
            <g id="g37">
              <path id="path39" class="cls-2" d="m21.56,26.53h-1.22v-3.4h9.86v3.4h-6.49"/>
            </g>
            <g id="g41">
              <path id="path43" class="cls-2" d="m34.31,34.33h-2.65c-.8,0-1.46-.65-1.46-1.46v-16.09c0-.8.65-1.46,1.46-1.46h2.65c.8,0,1.46.65,1.46,1.46v16.09c0,.8-.65,1.46-1.46,1.46Z"/>
            </g>
            <g id="g45">
              <path id="path47" class="cls-2" d="m39.74,30.64v.67c0,.51-.41.93-.93.93h-2.12c-.51,0-.93-.41-.93-.93v-12.98c0-.51.41-.93.93-.93h2.12c.51,0,.93.41.93.93v10.16"/>
            </g>
            <g id="g49">
              <path id="path51" class="cls-2" d="m41.07,27.47h-1.32v-5.3h1.32c.37,0,.66.3.66.66v3.97c0,.37-.3.66-.66.66Z"/>
            </g>
          </g>
          <path class="cls-3" d="m117.48,35.91c-4.01,0-7.26-3.26-7.26-7.26,0-3.03,1.92-5.77,4.78-6.81l.12-.04-.93-3.75-8.26,9.45.06.09c.21.33.32.7.32,1.08,0,.89-.58,1.67-1.45,1.92l-.1.03v2.18h.51c.26,0,.47.21.47.47s-.21.47-.47.47h-1.95c-.26,0-.47-.21-.47-.47s.21-.47.47-.47h.51v-2.18l-.1-.03c-.65-.19-1.16-.7-1.35-1.36l-.03-.1h-2.13v.13c-.32,3.74-3.49,6.66-7.24,6.66-4,0-7.26-3.26-7.26-7.26s3.26-7.26,7.26-7.26c1.22,0,2.43.31,3.5.9l.11.06,3.66-5.53-.71-2.34-.03-.09-.1-.03h-1.12c-.54,0-1.05-.21-1.43-.59-.38-.38-.59-.9-.58-1.44.01-1.03.85-1.92,1.87-1.99.05,0,.09,0,.14,0,.94,0,1.77.67,1.96,1.58l.02.11h2.27c.64,0,1.17.52,1.17,1.16s-.52,1.17-1.17,1.17h-2.06l.67,2.22h12.68l-.81-3.29c-.03-.14,0-.29.09-.4.09-.12.22-.18.37-.18h4.18c.94,0,1.71.77,1.71,1.71,0,.45-.18.9-.51,1.21-.31.32-.75.5-1.2.5h-.69c-.26,0-.47-.21-.47-.47s.21-.47.47-.47h.69c.21,0,.4-.08.54-.22.15-.14.23-.34.23-.55,0-.42-.35-.77-.77-.77h-3.58l1.95,7.89.13-.02c.46-.09.9-.13,1.33-.13,4,0,7.26,3.26,7.26,7.26s-3.26,7.26-7.26,7.26Zm-2.28-13.15c-2.42.94-4.04,3.31-4.04,5.89,0,3.49,2.84,6.32,6.32,6.32s6.32-2.84,6.32-6.32-2.83-6.32-6.32-6.32c-.34,0-.7.03-1.09.1l-.15.03,1.51,6.09c.03.12.01.25-.05.36-.06.11-.17.18-.29.21-.04,0-.08.01-.11.01-.22,0-.4-.15-.46-.36l-1.5-6.06-.15.06Zm-22.23-.43c-3.49,0-6.32,2.83-6.32,6.32s2.84,6.32,6.32,6.32c3.26,0,5.97-2.45,6.29-5.7v-.15s-6.29,0-6.29,0c-.17,0-.33-.09-.41-.25-.08-.15-.07-.34.02-.48l3.48-5.25-.13-.07c-.91-.48-1.93-.74-2.95-.74Zm4.39.55l.1.08c1.58,1.25,2.58,3.11,2.74,5.1v.13h2.14l.03-.1c.14-.46.43-.85.82-1.11l.09-.06-2.69-8.92-3.23,4.88Zm-3.51,5.3h5.43v-.15c-.18-1.68-1-3.2-2.31-4.28l-.12-.1-3,4.52Zm10.46-1.54c.28,0,.56.06.83.19l.09.04,8.17-9.35h-11.97l2.75,9.14.12-.02Z"/>
        </g>
        <g>
          <path class="cls-3" d="m103.33,96.76c-.51.34-1.2.81-1.2,1.77,0,.34.28.62.62.62s.62-.28.62-.62c0-.27.19-.43.66-.75.51-.34,1.2-.81,1.2-1.77s-.7-1.43-1.2-1.77c-.47-.32-.66-.47-.66-.75s.19-.43.66-.75c.51-.34,1.2-.81,1.2-1.77,0-.34-.28-.62-.62-.62s-.62.28-.62.62c0,.27-.19.43-.66.75-.51.34-1.2.81-1.2,1.77s.7,1.43,1.2,1.77c.47.32.66.47.66.75s-.19.43-.66.75Z"/>
          <path class="cls-3" d="m107.61,96.76c-.51.34-1.2.81-1.2,1.77,0,.34.28.62.62.62s.62-.28.62-.62c0-.27.19-.43.66-.75.51-.34,1.2-.81,1.2-1.77s-.7-1.43-1.2-1.77c-.47-.32-.66-.47-.66-.75s.19-.43.66-.75c.51-.34,1.2-.81,1.2-1.77,0-.34-.28-.62-.62-.62s-.62.28-.62.62c0,.27-.19.43-.66.75-.51.34-1.2.81-1.2,1.77s.7,1.43,1.2,1.77c.47.32.66.47.66.75s-.19.43-.66.75Z"/>
          <path class="cls-3" d="m111.89,96.76c-.51.34-1.2.81-1.2,1.77,0,.34.28.62.62.62s.62-.28.62-.62c0-.27.19-.43.66-.75.51-.34,1.2-.81,1.2-1.77s-.7-1.43-1.2-1.77c-.47-.32-.66-.47-.66-.75s.19-.43.66-.75c.51-.34,1.2-.81,1.2-1.77,0-.34-.28-.62-.62-.62s-.62.28-.62.62c0,.27-.19.43-.66.75-.51.34-1.2.81-1.2,1.77s.7,1.43,1.2,1.77c.47.32.66.47.66.75s-.19.43-.66.75Z"/>
          <path class="cls-3" d="m121.17,104.6h-2.27c.07-.44.12-.89.14-1.35.71-.25,1.23-.93,1.23-1.73,0-1.01-.82-1.83-1.83-1.83h-22.04c-1.01,0-1.83.82-1.83,1.83,0,.8.51,1.48,1.23,1.73.02.46.07.91.14,1.35h-2.27c-.34,0-.62.28-.62.62s.28.62.62.62h2.54c.85,3.08,2.95,5.65,5.71,7.14l-1.47,2.76s0,0,0,0l-2.74,5.15h-.94c-.34,0-.62.28-.62.62s.28.62.62.62h2.63c.34,0,.62-.28.62-.62s-.28-.62-.62-.62h-.28l2.26-4.23h12.26l2.26,4.23h-.43c-.34,0-.62.28-.62.62s.28.62.62.62h2.63c.34,0,.62-.28.62-.62s-.28-.62-.62-.62h-.8l-2.74-5.15h0s-1.5-2.82-1.5-2.82c2.7-1.5,4.75-4.04,5.6-7.08h2.54c.34,0,.62-.28.62-.62s-.28-.62-.62-.62Zm-19.15,10.82l1.01-1.9c1.35.55,2.83.86,4.38.86s3.12-.32,4.5-.91l1.04,1.95h-10.94Zm5.39-2.29c-5.52,0-10.06-4.33-10.38-9.77h20.75c-.32,5.44-4.85,9.77-10.38,9.77Zm11.02-11.02h-22.04c-.33,0-.59-.26-.59-.59s.26-.59.59-.59h22.04c.33,0,.59.26.59.59s-.26.59-.59.59Z"/>
        </g>
      </g>
      <rect class="cls-1" width="133.57" height="133.57"/>
    </g>
  </g>
</svg>